<?xml version="1.0" encoding="utf-8"?>
<!-- Generator: Adobe Illustrator 16.0.4, SVG Export Plug-In . SVG Version: 6.00 Build 0)  -->
<!DOCTYPE svg PUBLIC "-//W3C//DTD SVG 1.1//EN" "http://www.w3.org/Graphics/SVG/1.1/DTD/svg11.dtd">
<svg version="1.1" id="Layer_1" xmlns="http://www.w3.org/2000/svg" xmlns:xlink="http://www.w3.org/1999/xlink" x="0px" y="0px"
	 width="300px" height="300px" viewBox="0 0 300 300" enable-background="new 0 0 300 300" xml:space="preserve">
<g opacity="0.9">
	<rect fill="#143D66" width="300" height="300"/>
</g>
<g>
	<g>
		<path fill="#FFFFFF" d="M143.438,170.184v4.053h-9.321v5.752h7.762v4.07h-7.762v8.838h-5.3v-22.713H143.438z"/>
		<path fill="#FFFFFF" d="M151.201,176.48c1.071,0,2.05,0.167,2.938,0.5c0.889,0.332,1.653,0.814,2.292,1.449
			c0.64,0.634,1.139,1.411,1.497,2.331c0.358,0.919,0.536,1.961,0.536,3.124c0,0.365-0.016,0.662-0.045,0.89
			c-0.032,0.229-0.09,0.409-0.173,0.546c-0.083,0.135-0.194,0.229-0.334,0.279c-0.14,0.054-0.32,0.079-0.539,0.079h-9.321
			c0.156,1.351,0.565,2.329,1.231,2.938c0.665,0.607,1.522,0.911,2.571,0.911c0.562,0,1.046-0.067,1.451-0.202
			c0.405-0.137,0.768-0.285,1.084-0.453c0.315-0.164,0.606-0.316,0.873-0.451c0.264-0.135,0.544-0.203,0.834-0.203
			c0.383,0,0.675,0.141,0.872,0.422l1.403,1.729c-0.498,0.571-1.036,1.038-1.614,1.396s-1.168,0.641-1.777,0.842
			c-0.607,0.203-1.214,0.344-1.824,0.422c-0.606,0.076-1.187,0.117-1.737,0.117c-1.132,0-2.195-0.186-3.187-0.555
			c-0.994-0.369-1.862-0.918-2.604-1.645c-0.743-0.728-1.331-1.632-1.762-2.712c-0.433-1.081-0.647-2.339-0.647-3.772
			c0-1.08,0.184-2.104,0.554-3.071c0.368-0.967,0.898-1.813,1.589-2.54c0.692-0.729,1.528-1.305,2.51-1.731
			C148.855,176.694,149.966,176.48,151.201,176.48z M151.296,179.817c-0.925,0-1.646,0.263-2.168,0.787
			c-0.52,0.524-0.862,1.28-1.028,2.269h6.033c0-0.385-0.049-0.76-0.147-1.122c-0.099-0.364-0.261-0.689-0.484-0.976
			c-0.225-0.285-0.517-0.517-0.882-0.693C152.257,179.905,151.815,179.817,151.296,179.817z"/>
		<path fill="#FFFFFF" d="M167.413,176.48c1.07,0,2.051,0.167,2.939,0.5c0.887,0.332,1.651,0.814,2.291,1.449
			c0.639,0.634,1.137,1.411,1.497,2.331c0.357,0.919,0.538,1.961,0.538,3.124c0,0.365-0.016,0.662-0.047,0.89
			c-0.032,0.229-0.089,0.409-0.171,0.546c-0.084,0.135-0.196,0.229-0.336,0.279c-0.141,0.054-0.319,0.079-0.538,0.079h-9.322
			c0.156,1.351,0.566,2.329,1.231,2.938c0.665,0.607,1.522,0.911,2.572,0.911c0.562,0,1.045-0.067,1.449-0.202
			c0.406-0.137,0.767-0.285,1.083-0.453c0.318-0.164,0.608-0.316,0.873-0.451c0.267-0.135,0.543-0.203,0.835-0.203
			c0.385,0,0.675,0.141,0.872,0.422l1.404,1.729c-0.501,0.571-1.037,1.038-1.615,1.396c-0.574,0.357-1.169,0.641-1.776,0.842
			c-0.607,0.203-1.216,0.344-1.823,0.422c-0.608,0.076-1.188,0.117-1.738,0.117c-1.133,0-2.194-0.186-3.188-0.555
			c-0.992-0.369-1.86-0.918-2.604-1.645c-0.742-0.728-1.328-1.632-1.761-2.712c-0.43-1.081-0.646-2.339-0.646-3.772
			c0-1.08,0.185-2.104,0.552-3.071c0.37-0.967,0.899-1.813,1.592-2.54c0.689-0.729,1.527-1.305,2.509-1.731
			C165.067,176.694,166.176,176.48,167.413,176.48z M167.506,179.817c-0.924,0-1.647,0.263-2.166,0.787s-0.862,1.28-1.028,2.269
			h6.033c0-0.385-0.051-0.76-0.148-1.122c-0.1-0.364-0.26-0.689-0.484-0.976c-0.223-0.285-0.516-0.517-0.879-0.693
			C168.469,179.905,168.025,179.817,167.506,179.817z"/>
		<path fill="#FFFFFF" d="M188.145,192.896c-0.298,0-0.551-0.068-0.755-0.203c-0.201-0.135-0.345-0.338-0.429-0.607l-0.373-1.232
			c-0.323,0.344-0.659,0.656-1.013,0.936c-0.355,0.281-0.735,0.521-1.146,0.725c-0.41,0.203-0.852,0.357-1.324,0.467
			c-0.475,0.109-0.984,0.166-1.535,0.166c-0.843,0-1.622-0.188-2.34-0.562c-0.717-0.375-1.334-0.914-1.854-1.619
			c-0.521-0.709-0.928-1.574-1.224-2.597c-0.296-1.024-0.444-2.19-0.444-3.501c0-1.205,0.166-2.324,0.499-3.359
			c0.333-1.033,0.801-1.928,1.41-2.681s1.337-1.343,2.19-1.769c0.852-0.428,1.793-0.64,2.82-0.64c0.833,0,1.537,0.122,2.113,0.366
			s1.099,0.564,1.565,0.959v-8.184h4.834v23.336H188.145z M183.251,189.435c0.354,0,0.673-0.033,0.959-0.101
			c0.287-0.067,0.548-0.164,0.787-0.289c0.238-0.124,0.467-0.281,0.68-0.467c0.212-0.187,0.421-0.404,0.629-0.654v-6.859
			c-0.372-0.405-0.771-0.688-1.191-0.85c-0.422-0.162-0.866-0.242-1.332-0.242c-0.446,0-0.858,0.089-1.231,0.266
			c-0.374,0.177-0.7,0.459-0.974,0.85c-0.277,0.389-0.493,0.896-0.648,1.52c-0.156,0.623-0.232,1.377-0.232,2.26
			c0,0.853,0.06,1.57,0.185,2.151c0.125,0.583,0.3,1.054,0.523,1.411c0.223,0.358,0.492,0.615,0.803,0.771
			S182.868,189.435,183.251,189.435z"/>
		<path fill="#FFFFFF" d="M193.79,192.896v-23.336h4.832v8.885c0.604-0.592,1.286-1.067,2.051-1.426
			c0.762-0.359,1.658-0.539,2.688-0.539c0.843,0,1.62,0.182,2.339,0.547c0.717,0.363,1.334,0.896,1.854,1.598
			c0.519,0.701,0.927,1.561,1.223,2.58c0.297,1.018,0.444,2.178,0.444,3.476c0,1.216-0.17,2.338-0.508,3.368
			c-0.336,1.027-0.809,1.922-1.418,2.68c-0.606,0.76-1.334,1.352-2.183,1.777c-0.847,0.426-1.783,0.641-2.812,0.641
			c-0.478,0-0.906-0.049-1.287-0.141c-0.377-0.094-0.726-0.227-1.043-0.398s-0.608-0.377-0.873-0.615s-0.521-0.5-0.772-0.779
			l-0.171,0.811c-0.073,0.332-0.205,0.561-0.398,0.686c-0.192,0.125-0.444,0.188-0.755,0.188H193.79z M201.676,180.113
			c-0.353,0-0.673,0.033-0.956,0.102c-0.286,0.067-0.553,0.162-0.797,0.288c-0.243,0.125-0.47,0.284-0.678,0.476
			c-0.207,0.191-0.415,0.413-0.623,0.662v6.859c0.362,0.405,0.758,0.688,1.185,0.85c0.427,0.16,0.873,0.242,1.339,0.242
			c0.449,0,0.858-0.09,1.234-0.266c0.373-0.177,0.696-0.461,0.973-0.848c0.274-0.393,0.491-0.898,0.648-1.521
			c0.154-0.623,0.233-1.383,0.233-2.276c0-0.851-0.063-1.569-0.188-2.151c-0.125-0.582-0.301-1.053-0.523-1.41
			c-0.224-0.358-0.49-0.616-0.802-0.772C202.41,180.191,202.062,180.113,201.676,180.113z"/>
		<path fill="#FFFFFF" d="M216.331,172.303c0,0.385-0.079,0.746-0.234,1.084c-0.157,0.338-0.369,0.635-0.638,0.889
			c-0.271,0.255-0.587,0.457-0.945,0.607c-0.357,0.151-0.739,0.227-1.146,0.227c-0.394,0-0.765-0.075-1.107-0.227
			c-0.342-0.15-0.646-0.353-0.909-0.607c-0.267-0.254-0.476-0.551-0.626-0.889c-0.149-0.338-0.226-0.699-0.226-1.084
			c0-0.395,0.076-0.764,0.226-1.106c0.15-0.343,0.359-0.644,0.626-0.903c0.263-0.26,0.567-0.463,0.909-0.609
			c0.343-0.145,0.714-0.218,1.107-0.218c0.406,0,0.788,0.073,1.146,0.218c0.358,0.146,0.674,0.35,0.945,0.609
			c0.269,0.26,0.48,0.561,0.638,0.903C216.252,171.539,216.331,171.908,216.331,172.303z M215.771,176.73v16.166h-4.833V176.73
			H215.771z"/>
		<path fill="#FFFFFF" d="M218.543,192.896V176.73h2.994c0.299,0,0.554,0.067,0.756,0.203c0.204,0.135,0.346,0.338,0.43,0.607
			l0.279,0.936c0.312-0.291,0.633-0.562,0.966-0.811c0.332-0.25,0.688-0.461,1.068-0.631c0.378-0.172,0.789-0.307,1.23-0.406
			c0.442-0.099,0.923-0.148,1.443-0.148c0.884,0,1.665,0.154,2.345,0.461c0.683,0.307,1.256,0.732,1.724,1.277
			c0.469,0.547,0.821,1.195,1.06,1.949s0.357,1.572,0.357,2.455v10.273h-4.83v-10.273c0-0.79-0.183-1.405-0.546-1.848
			c-0.365-0.441-0.9-0.662-1.606-0.662c-0.53,0-1.029,0.114-1.497,0.342c-0.466,0.23-0.913,0.536-1.338,0.92v11.521H218.543z"/>
	</g>
	<path fill="#FFFFFF" d="M105.296,188.067c-7.556-0.028-32.476-0.028-37.672,0c-1.628,0.01-1.609-7.54,0-7.794
		c5.236-0.828,20.221,0,20.221,0s5.396,5.459,6.982,5.467c1.607,0.007,5.383-5.467,5.383-5.467s4.299-0.786,5.086,0
		C106.595,181.57,106.927,188.074,105.296,188.067z"/>
	<path fill="#FFFFFF" d="M103.459,195.301c-6.391,0.848-28.016,0.639-34.511,0c-1.45-0.143-0.515-4.559-0.515-4.559h36.213
		C104.646,190.742,105.281,195.059,103.459,195.301z"/>
	<path fill="#FFFFFF" d="M85.77,162.147c-9.206-1.246-16.822,6.44-16.822,13.872l34.399,0.352
		C103.348,168.939,94.904,163.385,85.77,162.147z M74.769,171.824c-0.718,0-1.299-0.583-1.299-1.299c0-0.719,0.581-1.3,1.299-1.3
		c0.718,0,1.299,0.581,1.299,1.3C76.068,171.241,75.487,171.824,74.769,171.824z M77.367,173.777c-0.359,0-0.65-0.291-0.65-0.65
		c0-0.358,0.291-0.649,0.65-0.649c0.359,0,0.649,0.291,0.649,0.649C78.016,173.486,77.726,173.777,77.367,173.777z M78.016,168.576
		c-0.718,0-1.299-0.582-1.299-1.299c0-0.719,0.581-1.299,1.299-1.299c0.718,0,1.299,0.58,1.299,1.299
		C79.315,167.994,78.734,168.576,78.016,168.576z M80.614,172.473c-0.718,0-1.299-0.582-1.299-1.299s0.581-1.299,1.299-1.299
		s1.299,0.582,1.299,1.299S81.333,172.473,80.614,172.473z M83.212,167.277c-0.718,0-1.299-0.582-1.299-1.299
		c0-0.719,0.581-1.299,1.299-1.299c0.718,0,1.299,0.58,1.299,1.299C84.512,166.695,83.931,167.277,83.212,167.277z M85.161,171.179
		c-0.358,0-0.649-0.291-0.649-0.649c0-0.359,0.291-0.649,0.649-0.649c0.359,0,0.65,0.29,0.65,0.649
		C85.811,170.888,85.52,171.179,85.161,171.179z"/>
</g>
<g>
	<polygon fill="none" stroke="#FFFFFF" stroke-width="2" stroke-miterlimit="10" points="165.451,122.333 135.243,122.333 
		132.542,104.046 168.152,104.046 	"/>
	
		<line fill="none" stroke="#FFFFFF" stroke-width="2" stroke-linecap="round" stroke-miterlimit="10" x1="140.328" y1="122.134" x2="137.626" y2="107.327"/>
	
		<line fill="none" stroke="#FFFFFF" stroke-width="2" stroke-linecap="round" stroke-miterlimit="10" x1="143.858" y1="121.203" x2="142.04" y2="110.097"/>
	<path fill="none" stroke="#FFFFFF" stroke-width="2" stroke-miterlimit="10" d="M167.202,103.681h-34.798
		c-2.403,0-4.35-1.92-4.35-4.29s1.947-4.29,4.35-4.29h34.798c2.403,0,4.349,1.921,4.349,4.29S169.605,103.681,167.202,103.681z"/>
	<path fill="none" stroke="#FFFFFF" stroke-width="2" stroke-miterlimit="10" d="M163.378,95.136h-27.732
		c-2.252,0-4.078-1.801-4.078-4.022s1.825-4.021,4.078-4.021h27.732c2.252,0,4.078,1.8,4.078,4.021S165.63,95.136,163.378,95.136z"
		/>
	<path fill="none" stroke="#FFFFFF" stroke-width="2" stroke-miterlimit="10" d="M157.935,86.831h-17.4
		c-2.252,0-4.079-1.802-4.079-4.022c0-2.22,1.826-4.021,4.079-4.021h17.4c2.253,0,4.078,1.801,4.078,4.021
		C162.013,85.029,160.188,86.831,157.935,86.831z"/>
	
		<rect x="147.704" y="55.482" fill="none" stroke="#FFFFFF" stroke-width="2" stroke-miterlimit="10" width="4.681" height="23.296"/>
	<line fill="none" stroke="#FFFFFF" stroke-width="2" stroke-miterlimit="10" x1="150.045" y1="56.015" x2="150.349" y2="50.74"/>
	<path fill="none" stroke="#FFFFFF" stroke-width="2" stroke-miterlimit="10" d="M154.513,48.623c0,2.305-1.895,4.173-4.231,4.173
		c-2.335,0-4.229-1.869-4.229-4.173c0-2.304,1.895-8.14,4.229-8.14C152.618,40.483,154.513,46.319,154.513,48.623z"/>
</g>
<g>
	<rect x="-0.197" y="238.316" fill="none" width="299.999" height="45.5"/>
	<path fill="#FFFFFF" d="M50.997,240.336v11.72h-0.82v-11.72h-4.42v-0.78h9.66v0.78H50.997z"/>
	<path fill="#FFFFFF" d="M63.471,252.056v-6.094c0-0.815-0.173-1.44-0.52-1.875c-0.347-0.434-0.894-0.651-1.64-0.651
		c-0.52,0-1.05,0.138-1.59,0.411c-0.54,0.274-1.063,0.665-1.57,1.173v7.036h-0.82v-13.48l0.82-0.26v5.96
		c0.533-0.546,1.1-0.946,1.7-1.2c0.6-0.253,1.12-0.38,1.56-0.38c0.907,0,1.613,0.264,2.12,0.79c0.506,0.527,0.76,1.297,0.76,2.311
		v6.26H63.471z"/>
	<path fill="#FFFFFF" d="M72.015,250.815c-0.133,0.174-0.303,0.347-0.51,0.521c-0.207,0.173-0.437,0.33-0.69,0.47
		c-0.253,0.14-0.52,0.25-0.8,0.33c-0.28,0.08-0.567,0.12-0.86,0.12c-0.4,0-0.777-0.061-1.13-0.181
		c-0.354-0.12-0.657-0.284-0.91-0.491c-0.253-0.207-0.454-0.461-0.6-0.762c-0.147-0.301-0.22-0.631-0.22-0.992
		c0-0.428,0.096-0.825,0.29-1.192c0.193-0.367,0.51-0.691,0.95-0.973c0.44-0.28,1.02-0.514,1.74-0.701
		c0.72-0.187,1.606-0.314,2.66-0.381v-0.842c0-0.708-0.177-1.27-0.53-1.684c-0.354-0.415-0.923-0.622-1.71-0.622
		c-0.28,0-0.563,0.038-0.85,0.112s-0.563,0.166-0.83,0.274s-0.52,0.233-0.76,0.376c-0.24,0.143-0.454,0.288-0.64,0.438l-0.2-0.82
		c0.427-0.307,0.95-0.569,1.57-0.79c0.62-0.22,1.21-0.33,1.77-0.33c0.44,0,0.843,0.054,1.21,0.16
		c0.367,0.106,0.683,0.279,0.95,0.519c0.267,0.24,0.473,0.549,0.62,0.928c0.146,0.38,0.22,0.835,0.22,1.367v4.949
		c0,0.279,0.057,0.512,0.17,0.698s0.376,0.272,0.79,0.259l-0.06,0.641c-0.454,0.026-0.83-0.073-1.13-0.3
		c-0.3-0.227-0.463-0.594-0.49-1.101H72.015z M71.935,247.176c-0.893,0.094-1.646,0.217-2.26,0.37s-1.11,0.337-1.49,0.55
		c-0.38,0.214-0.653,0.457-0.82,0.729c-0.167,0.273-0.25,0.577-0.25,0.91c0,0.574,0.21,1.014,0.63,1.32s0.923,0.46,1.51,0.46
		c0.573,0,1.09-0.15,1.55-0.45s0.836-0.623,1.13-0.97V247.176z"/>
	<path fill="#FFFFFF" d="M81.699,252.056v-6.094c0-0.815-0.173-1.44-0.52-1.875c-0.347-0.434-0.894-0.651-1.64-0.651
		c-0.52,0-1.05,0.138-1.59,0.411c-0.54,0.274-1.063,0.665-1.57,1.173v7.036h-0.82v-9.1l0.82-0.261v1.601
		c0.533-0.547,1.1-0.95,1.7-1.21c0.6-0.261,1.12-0.391,1.56-0.391c0.907,0,1.613,0.264,2.12,0.79c0.506,0.527,0.76,1.297,0.76,2.311
		v6.26H81.699z"/>
	<path fill="#FFFFFF" d="M86.094,247.436v4.62h-0.82v-13.48l0.82-0.26v8.84h0.04l4.44-4.26h1.06l-4.62,4.4l4.64,4.76h-1.08
		l-4.44-4.62H86.094z"/>
	<path fill="#FFFFFF" d="M99.994,246.976v5.08h-0.82v-5.06l-4.38-7.44h0.94l3.869,6.62l3.831-6.62h0.92L99.994,246.976z"/>
	<path fill="#FFFFFF" d="M113.091,247.436c0,0.72-0.117,1.377-0.35,1.97c-0.233,0.594-0.557,1.101-0.97,1.521
		c-0.414,0.42-0.89,0.747-1.43,0.979c-0.54,0.233-1.123,0.351-1.75,0.351c-0.613,0-1.19-0.11-1.73-0.33s-1.01-0.537-1.41-0.95
		c-0.4-0.413-0.713-0.913-0.94-1.5c-0.227-0.587-0.34-1.24-0.34-1.96s0.117-1.377,0.35-1.97c0.233-0.594,0.557-1.101,0.97-1.521
		c0.413-0.42,0.893-0.746,1.44-0.979c0.546-0.233,1.126-0.351,1.74-0.351c0.626,0,1.207,0.11,1.74,0.33
		c0.533,0.221,1,0.537,1.4,0.95s0.713,0.913,0.94,1.5C112.978,246.062,113.091,246.716,113.091,247.436z M112.271,247.476
		c0-0.627-0.093-1.189-0.28-1.689c-0.187-0.5-0.44-0.924-0.76-1.271s-0.704-0.613-1.15-0.8c-0.447-0.187-0.93-0.28-1.45-0.28
		s-1.003,0.101-1.45,0.3c-0.447,0.2-0.83,0.48-1.15,0.84c-0.32,0.36-0.574,0.787-0.76,1.28c-0.187,0.493-0.28,1.033-0.28,1.62
		c0,0.627,0.09,1.19,0.27,1.69c0.18,0.5,0.433,0.923,0.76,1.27s0.713,0.613,1.16,0.8c0.446,0.188,0.93,0.28,1.45,0.28
		s1.003-0.1,1.45-0.3c0.446-0.2,0.83-0.48,1.15-0.84c0.32-0.36,0.573-0.787,0.76-1.28
		C112.178,248.603,112.271,248.062,112.271,247.476z"/>
	<path fill="#FFFFFF" d="M116.112,242.896v6.094c0,0.815,0.173,1.44,0.52,1.875c0.346,0.435,0.893,0.651,1.64,0.651
		c0.52,0,1.05-0.137,1.59-0.411c0.54-0.273,1.063-0.664,1.57-1.173v-7.036h0.82v9.101l-0.82,0.26v-1.62
		c-0.534,0.547-1.1,0.953-1.7,1.22c-0.6,0.267-1.12,0.4-1.56,0.4c-0.907,0-1.613-0.264-2.12-0.79
		c-0.507-0.526-0.76-1.297-0.76-2.311v-6.26H116.112z"/>
	<path fill="#FFFFFF" d="M134.132,239.235c-0.213-0.106-0.423-0.192-0.63-0.26c-0.207-0.066-0.45-0.1-0.73-0.1
		c-1.107,0-1.66,0.773-1.66,2.319v1.801h2.84l-0.06,0.699h-2.78v8.36h-0.82v-8.32l-1.32-0.08l0.06-0.52l1.24-0.16l0.02-1.74
		c0.013-0.573,0.083-1.057,0.21-1.449c0.126-0.394,0.303-0.714,0.53-0.961c0.227-0.246,0.49-0.423,0.79-0.529
		c0.3-0.106,0.623-0.16,0.97-0.16c0.293,0,0.573,0.033,0.84,0.1c0.267,0.067,0.5,0.153,0.7,0.261L134.132,239.235z"/>
	<path fill="#FFFFFF" d="M143.627,247.436c0,0.72-0.117,1.377-0.35,1.97c-0.233,0.594-0.557,1.101-0.97,1.521
		c-0.414,0.42-0.89,0.747-1.43,0.979c-0.54,0.233-1.123,0.351-1.75,0.351c-0.613,0-1.19-0.11-1.73-0.33s-1.01-0.537-1.41-0.95
		c-0.4-0.413-0.713-0.913-0.94-1.5c-0.227-0.587-0.34-1.24-0.34-1.96s0.117-1.377,0.35-1.97c0.233-0.594,0.557-1.101,0.97-1.521
		c0.413-0.42,0.893-0.746,1.44-0.979c0.546-0.233,1.126-0.351,1.74-0.351c0.626,0,1.207,0.11,1.74,0.33
		c0.533,0.221,1,0.537,1.4,0.95s0.713,0.913,0.94,1.5C143.514,246.062,143.627,246.716,143.627,247.436z M142.807,247.476
		c0-0.627-0.093-1.189-0.28-1.689c-0.187-0.5-0.44-0.924-0.76-1.271s-0.704-0.613-1.15-0.8c-0.447-0.187-0.93-0.28-1.45-0.28
		s-1.003,0.101-1.45,0.3c-0.447,0.2-0.83,0.48-1.15,0.84c-0.32,0.36-0.574,0.787-0.76,1.28c-0.187,0.493-0.28,1.033-0.28,1.62
		c0,0.627,0.09,1.19,0.27,1.69c0.18,0.5,0.433,0.923,0.76,1.27s0.713,0.613,1.16,0.8c0.446,0.188,0.93,0.28,1.45,0.28
		s1.003-0.1,1.45-0.3c0.446-0.2,0.83-0.48,1.15-0.84c0.32-0.36,0.573-0.787,0.76-1.28
		C142.714,248.603,142.807,248.062,142.807,247.476z"/>
	<path fill="#FFFFFF" d="M146.717,252.056h-0.82v-9.1l0.82-0.261v2.28c0.267-0.68,0.647-1.229,1.14-1.65
		c0.493-0.42,1.053-0.63,1.68-0.63c0.293,0,0.57,0.037,0.83,0.11c0.26,0.073,0.483,0.163,0.67,0.27l-0.24,0.74
		c-0.147-0.099-0.333-0.186-0.56-0.264c-0.227-0.077-0.487-0.116-0.78-0.116c-0.52,0-1.01,0.214-1.47,0.642s-0.883,1.163-1.27,2.205
		V252.056z"/>
	<path fill="#FFFFFF" d="M162.376,250.815c-0.134,0.174-0.304,0.347-0.511,0.521c-0.206,0.173-0.437,0.33-0.689,0.47
		c-0.254,0.14-0.521,0.25-0.8,0.33c-0.28,0.08-0.567,0.12-0.86,0.12c-0.4,0-0.777-0.061-1.13-0.181
		c-0.354-0.12-0.657-0.284-0.91-0.491c-0.254-0.207-0.453-0.461-0.6-0.762c-0.147-0.301-0.221-0.631-0.221-0.992
		c0-0.428,0.097-0.825,0.29-1.192s0.511-0.691,0.95-0.973c0.44-0.28,1.021-0.514,1.74-0.701c0.72-0.187,1.606-0.314,2.66-0.381
		v-0.842c0-0.708-0.177-1.27-0.53-1.684c-0.354-0.415-0.924-0.622-1.71-0.622c-0.28,0-0.563,0.038-0.85,0.112
		c-0.287,0.074-0.563,0.166-0.83,0.274c-0.268,0.108-0.521,0.233-0.761,0.376c-0.239,0.143-0.453,0.288-0.64,0.438l-0.2-0.82
		c0.427-0.307,0.95-0.569,1.57-0.79c0.62-0.22,1.21-0.33,1.77-0.33c0.44,0,0.844,0.054,1.21,0.16
		c0.367,0.106,0.684,0.279,0.95,0.519c0.267,0.24,0.474,0.549,0.62,0.928c0.146,0.38,0.22,0.835,0.22,1.367v4.949
		c0,0.279,0.057,0.512,0.17,0.698s0.377,0.272,0.79,0.259l-0.06,0.641c-0.453,0.026-0.83-0.073-1.13-0.3s-0.464-0.594-0.49-1.101
		H162.376z M162.296,247.176c-0.894,0.094-1.647,0.217-2.261,0.37s-1.109,0.337-1.489,0.55c-0.38,0.214-0.653,0.457-0.82,0.729
		c-0.167,0.273-0.25,0.577-0.25,0.91c0,0.574,0.21,1.014,0.63,1.32s0.923,0.46,1.51,0.46c0.573,0,1.091-0.15,1.551-0.45
		s0.836-0.623,1.13-0.97V247.176z"/>
	<path fill="#FFFFFF" d="M178.435,251.936c-0.707,0.213-1.44,0.32-2.2,0.32c-0.894,0-1.696-0.15-2.41-0.45
		c-0.713-0.3-1.319-0.727-1.819-1.28c-0.5-0.553-0.884-1.227-1.15-2.02s-0.399-1.684-0.399-2.67c0-0.987,0.143-1.88,0.43-2.681
		c0.286-0.8,0.689-1.479,1.21-2.04c0.52-0.56,1.133-0.993,1.84-1.3s1.48-0.46,2.32-0.46c0.812,0,1.54,0.104,2.18,0.312
		c0.64,0.208,1.16,0.431,1.56,0.669l-0.26,0.72c-0.439-0.28-0.97-0.51-1.59-0.69c-0.62-0.18-1.264-0.27-1.93-0.27
		c-0.681,0-1.317,0.124-1.91,0.371c-0.594,0.248-1.113,0.616-1.561,1.104c-0.446,0.488-0.797,1.09-1.05,1.806
		s-0.38,1.535-0.38,2.459c0,0.883,0.117,1.676,0.351,2.378c0.232,0.703,0.566,1.299,1,1.786c0.433,0.489,0.953,0.863,1.56,1.124
		c0.606,0.262,1.283,0.392,2.03,0.392c0.653,0,1.256-0.083,1.81-0.251c0.554-0.167,1.043-0.385,1.47-0.652v-3.856h-3.739v-0.74h4.56
		v4.98C179.781,251.409,179.142,251.723,178.435,251.936z"/>
	<path fill="#FFFFFF" d="M183.929,252.056h-0.819v-9.1l0.819-0.261v2.28c0.267-0.68,0.646-1.229,1.141-1.65
		c0.493-0.42,1.053-0.63,1.68-0.63c0.293,0,0.57,0.037,0.83,0.11s0.483,0.163,0.67,0.27l-0.24,0.74
		c-0.146-0.099-0.333-0.186-0.56-0.264c-0.228-0.077-0.487-0.116-0.78-0.116c-0.521,0-1.01,0.214-1.47,0.642
		s-0.884,1.163-1.271,2.205V252.056z"/>
	<path fill="#FFFFFF" d="M189.669,247.477c0,0.576,0.077,1.112,0.231,1.607c0.153,0.496,0.378,0.925,0.673,1.286
		c0.295,0.362,0.653,0.644,1.076,0.845c0.422,0.2,0.895,0.301,1.417,0.301c0.523,0,0.999-0.075,1.428-0.226s0.812-0.335,1.146-0.555
		l0.18,0.74c-0.36,0.227-0.777,0.413-1.252,0.561c-0.474,0.146-0.991,0.22-1.553,0.22c-0.628,0-1.198-0.117-1.713-0.351
		c-0.515-0.232-0.951-0.56-1.312-0.979c-0.36-0.42-0.641-0.92-0.841-1.5s-0.301-1.217-0.301-1.91s0.101-1.333,0.3-1.92
		c0.2-0.587,0.483-1.097,0.851-1.53c0.366-0.433,0.8-0.77,1.3-1.01s1.05-0.36,1.65-0.36c0.453,0,0.873,0.074,1.26,0.221
		s0.723,0.356,1.01,0.63c0.286,0.273,0.51,0.604,0.67,0.99s0.24,0.826,0.24,1.319c0,0.228-0.021,0.474-0.061,0.74
		s-0.087,0.5-0.141,0.7l-6.259,0.04V247.477z M195.249,246.596c0.04-0.229,0.06-0.456,0.06-0.685c0-0.725-0.211-1.318-0.635-1.781
		c-0.423-0.463-1.004-0.694-1.742-0.694c-0.859,0-1.571,0.292-2.136,0.876c-0.563,0.584-0.92,1.345-1.067,2.284H195.249z"/>
	<path fill="#FFFFFF" d="M203.349,250.815c-0.134,0.174-0.304,0.347-0.511,0.521c-0.206,0.173-0.437,0.33-0.689,0.47
		c-0.254,0.14-0.521,0.25-0.8,0.33c-0.28,0.08-0.567,0.12-0.86,0.12c-0.4,0-0.777-0.061-1.13-0.181
		c-0.354-0.12-0.657-0.284-0.91-0.491c-0.254-0.207-0.453-0.461-0.6-0.762c-0.147-0.301-0.221-0.631-0.221-0.992
		c0-0.428,0.097-0.825,0.29-1.192s0.511-0.691,0.95-0.973c0.44-0.28,1.021-0.514,1.74-0.701c0.72-0.187,1.606-0.314,2.66-0.381
		v-0.842c0-0.708-0.177-1.27-0.53-1.684c-0.354-0.415-0.924-0.622-1.71-0.622c-0.28,0-0.563,0.038-0.85,0.112
		c-0.287,0.074-0.563,0.166-0.83,0.274c-0.268,0.108-0.521,0.233-0.761,0.376c-0.239,0.143-0.453,0.288-0.64,0.438l-0.2-0.82
		c0.427-0.307,0.95-0.569,1.57-0.79c0.62-0.22,1.21-0.33,1.77-0.33c0.44,0,0.844,0.054,1.21,0.16
		c0.367,0.106,0.684,0.279,0.95,0.519c0.267,0.24,0.474,0.549,0.62,0.928c0.146,0.38,0.22,0.835,0.22,1.367v4.949
		c0,0.279,0.057,0.512,0.17,0.698s0.377,0.272,0.79,0.259l-0.06,0.641c-0.453,0.026-0.83-0.073-1.13-0.3s-0.464-0.594-0.49-1.101
		H203.349z M203.269,247.176c-0.894,0.094-1.647,0.217-2.261,0.37s-1.109,0.337-1.489,0.55c-0.38,0.214-0.653,0.457-0.82,0.729
		c-0.167,0.273-0.25,0.577-0.25,0.91c0,0.574,0.21,1.014,0.63,1.32s0.923,0.46,1.51,0.46c0.573,0,1.091-0.15,1.551-0.45
		s0.836-0.623,1.13-0.97V247.176z"/>
	<path fill="#FFFFFF" d="M210.148,252.206c-0.359,0.1-0.707,0.149-1.04,0.149c-0.854,0-1.45-0.253-1.79-0.76s-0.496-1.227-0.47-2.16
		l0.16-5.7l-1.26-0.08l0.06-0.52l1.22-0.16l0.061-2.18h0.8l-0.06,2.2h3.26l-0.061,0.699h-3.22l-0.16,5.761
		c-0.026,0.76,0.077,1.31,0.311,1.649c0.232,0.34,0.623,0.51,1.17,0.51c0.333,0,0.656-0.053,0.97-0.159
		c0.313-0.107,0.61-0.233,0.89-0.381l0.16,0.7C210.842,251.963,210.509,252.105,210.148,252.206z"/>
	<path fill="#FFFFFF" d="M222.208,246.976v5.08h-0.82v-5.06l-4.38-7.44h0.939l3.87,6.62l3.83-6.62h0.92L222.208,246.976z"/>
	<path fill="#FFFFFF" d="M227.299,247.477c0,0.576,0.077,1.112,0.231,1.607c0.153,0.496,0.378,0.925,0.673,1.286
		c0.295,0.362,0.653,0.644,1.076,0.845c0.422,0.2,0.895,0.301,1.417,0.301c0.523,0,0.999-0.075,1.428-0.226s0.812-0.335,1.146-0.555
		l0.18,0.74c-0.36,0.227-0.777,0.413-1.252,0.561c-0.474,0.146-0.991,0.22-1.553,0.22c-0.628,0-1.198-0.117-1.713-0.351
		c-0.515-0.232-0.951-0.56-1.312-0.979c-0.36-0.42-0.641-0.92-0.841-1.5s-0.301-1.217-0.301-1.91s0.101-1.333,0.3-1.92
		c0.2-0.587,0.483-1.097,0.851-1.53c0.366-0.433,0.8-0.77,1.3-1.01s1.05-0.36,1.65-0.36c0.453,0,0.873,0.074,1.26,0.221
		s0.723,0.356,1.01,0.63c0.286,0.273,0.51,0.604,0.67,0.99s0.24,0.826,0.24,1.319c0,0.228-0.021,0.474-0.061,0.74
		s-0.087,0.5-0.141,0.7l-6.259,0.04V247.477z M232.879,246.596c0.04-0.229,0.06-0.456,0.06-0.685c0-0.725-0.211-1.318-0.635-1.781
		c-0.423-0.463-1.004-0.694-1.742-0.694c-0.859,0-1.571,0.292-2.136,0.876c-0.563,0.584-0.92,1.345-1.067,2.284H232.879z"/>
	<path fill="#FFFFFF" d="M240.979,250.815c-0.134,0.174-0.304,0.347-0.511,0.521c-0.206,0.173-0.437,0.33-0.689,0.47
		c-0.254,0.14-0.521,0.25-0.8,0.33c-0.28,0.08-0.567,0.12-0.86,0.12c-0.4,0-0.777-0.061-1.13-0.181
		c-0.354-0.12-0.657-0.284-0.91-0.491c-0.254-0.207-0.453-0.461-0.6-0.762c-0.147-0.301-0.221-0.631-0.221-0.992
		c0-0.428,0.097-0.825,0.29-1.192s0.511-0.691,0.95-0.973c0.44-0.28,1.021-0.514,1.74-0.701c0.72-0.187,1.606-0.314,2.66-0.381
		v-0.842c0-0.708-0.177-1.27-0.53-1.684c-0.354-0.415-0.924-0.622-1.71-0.622c-0.28,0-0.563,0.038-0.85,0.112
		c-0.287,0.074-0.563,0.166-0.83,0.274c-0.268,0.108-0.521,0.233-0.761,0.376c-0.239,0.143-0.453,0.288-0.64,0.438l-0.2-0.82
		c0.427-0.307,0.95-0.569,1.57-0.79c0.62-0.22,1.21-0.33,1.77-0.33c0.44,0,0.844,0.054,1.21,0.16
		c0.367,0.106,0.684,0.279,0.95,0.519c0.267,0.24,0.474,0.549,0.62,0.928c0.146,0.38,0.22,0.835,0.22,1.367v4.949
		c0,0.279,0.057,0.512,0.17,0.698s0.377,0.272,0.79,0.259l-0.06,0.641c-0.453,0.026-0.83-0.073-1.13-0.3s-0.464-0.594-0.49-1.101
		H240.979z M240.899,247.176c-0.894,0.094-1.647,0.217-2.261,0.37s-1.109,0.337-1.489,0.55c-0.38,0.214-0.653,0.457-0.82,0.729
		c-0.167,0.273-0.25,0.577-0.25,0.91c0,0.574,0.21,1.014,0.63,1.32s0.923,0.46,1.51,0.46c0.573,0,1.091-0.15,1.551-0.45
		s0.836-0.623,1.13-0.97V247.176z"/>
	<path fill="#FFFFFF" d="M245.343,252.056h-0.819v-9.1l0.819-0.261v2.28c0.267-0.68,0.646-1.229,1.141-1.65
		c0.493-0.42,1.053-0.63,1.68-0.63c0.293,0,0.57,0.037,0.83,0.11s0.483,0.163,0.67,0.27l-0.24,0.74
		c-0.146-0.099-0.333-0.186-0.56-0.264c-0.228-0.077-0.487-0.116-0.78-0.116c-0.521,0-1.01,0.214-1.47,0.642
		s-0.884,1.163-1.271,2.205V252.056z"/>
	<path fill="#FFFFFF" d="M252.646,251.506c0,0.197-0.065,0.372-0.197,0.522c-0.131,0.151-0.302,0.228-0.513,0.228
		c-0.21,0-0.378-0.076-0.503-0.228c-0.125-0.15-0.187-0.325-0.187-0.522c0-0.184,0.062-0.349,0.187-0.493s0.293-0.217,0.503-0.217
		c0.211,0,0.382,0.072,0.513,0.217C252.581,251.157,252.646,251.322,252.646,251.506z M251.467,239.115h1l-0.26,9.4h-0.46
		L251.467,239.115z"/>
</g>
<line fill="none" stroke="#3399FF" stroke-width="0.5" stroke-miterlimit="10" x1="45.469" y1="215.889" x2="254.136" y2="215.889"/>
<g>
</g>
<g>
</g>
<g>
</g>
<g>
</g>
<g>
</g>
<g>
</g>
</svg>
