<?xml version="1.0" encoding="utf-8"?>
<!-- Generator: Adobe Illustrator 16.0.4, SVG Export Plug-In . SVG Version: 6.00 Build 0)  -->
<!DOCTYPE svg PUBLIC "-//W3C//DTD SVG 1.1//EN" "http://www.w3.org/Graphics/SVG/1.1/DTD/svg11.dtd">
<svg version="1.1" id="Layer_1" xmlns="http://www.w3.org/2000/svg" xmlns:xlink="http://www.w3.org/1999/xlink" x="0px" y="0px"
	 width="200px" height="200px" viewBox="0 0 200 200" enable-background="new 0 0 200 200" xml:space="preserve">
<rect fill="none" width="200" height="200"/>
<g>
	<g>
		<polygon fill="none" stroke="#297BCC" stroke-width="2" stroke-miterlimit="10" points="41.564,64.921 22.699,64.921 
			21.268,53.243 18.988,27.076 45.276,27.076 		"/>
		<polygon fill="none" stroke="#297BCC" stroke-width="2" stroke-miterlimit="10" points="46.656,27.076 17.222,27.076 
			17.686,24.002 46.193,24.002 		"/>
		<line fill="none" stroke="#297BCC" stroke-width="2" stroke-miterlimit="10" x1="19.846" y1="36.919" x2="44.311" y2="36.919"/>
		<line fill="none" stroke="#297BCC" stroke-width="2" stroke-miterlimit="10" x1="42.996" y1="51.008" x2="21.268" y2="51.008"/>
		<line fill="none" stroke="#297BCC" stroke-width="2" stroke-miterlimit="10" x1="22.444" y1="61.163" x2="41.769" y2="61.163"/>
		<polygon fill="none" stroke="#297BCC" stroke-width="2" stroke-miterlimit="10" points="33.532,24.002 30.732,24.002 
			30.732,12.412 43.214,14.379 42.778,17.146 33.532,15.689 		"/>
	</g>
	<g>
		<path fill="none" stroke="#297BCC" stroke-width="2" stroke-miterlimit="10" d="M141.05,103.533c0,0-8.151-2.5-16.872-2.5
			c-8.806,0-16.872,2.5-16.872,2.5l-2.5-40.792c0,0,10.566,5,19.372,5c8.721,0,19.371-5,19.371-5L141.05,103.533z"/>
		<polyline fill="none" stroke="#297BCC" stroke-width="2" stroke-miterlimit="10" points="108.064,64.113 106.163,53.438 
			110.669,52.988 111.917,65.48 		"/>
		<polyline fill="none" stroke="#297BCC" stroke-width="2" stroke-miterlimit="10" points="114.919,66.36 113.613,45.565 
			118.133,45.282 119.518,67.343 		"/>
		<polyline fill="none" stroke="#297BCC" stroke-width="2" stroke-miterlimit="10" points="120.706,67.511 123.176,42.491 
			127.432,42.936 124.736,67.717 		"/>
		<polyline fill="none" stroke="#297BCC" stroke-width="2" stroke-miterlimit="10" points="128.793,67.345 130.23,47.715 
			135.237,48.16 133.441,66.349 		"/>
		<polyline fill="none" stroke="#297BCC" stroke-width="2" stroke-miterlimit="10" points="135.678,65.708 138.715,51.521 
			143.143,52.469 139.887,63.952 		"/>
	</g>
	<g>
		<path fill="none" stroke="#297BCC" stroke-width="2" stroke-miterlimit="10" d="M83.288,123.674h-9.136
			c-2.768,0-5.012,2.244-5.012,5.012s2.244,5.012,5.012,5.012h6.473c0.515-0.762,1.136-1.445,1.835-2.039"/>
		<path fill="none" stroke="#297BCC" stroke-width="2" stroke-miterlimit="10" d="M150.298,131.657c0.7,0.594,1.32,1.278,1.835,2.04
			h6.475c2.767,0,5.01-2.244,5.01-5.012s-2.243-5.012-5.01-5.012h-9.137"/>
		<path fill="none" stroke="#297BCC" stroke-width="2" stroke-miterlimit="10" d="M80.625,133.697
			c-1.079,1.6-1.709,3.527-1.709,5.602c0,5.536,4.488,10.023,10.024,10.023h54.88c5.535,0,10.021-4.487,10.021-10.023
			c0-2.074-0.629-4.002-1.709-5.602"/>
		<path fill="none" stroke="#297BCC" stroke-width="2" stroke-miterlimit="10" d="M152.133,133.697
			c-0.515-0.762-1.135-1.446-1.835-2.04"/>
		<path fill="none" stroke="#297BCC" stroke-width="2" stroke-miterlimit="10" d="M141.523,118.662H91.234
			c-3.399,0-6.358,2.02-7.946,5.012h66.183C147.881,120.682,144.922,118.662,141.523,118.662z"/>
		<path fill="none" stroke="#297BCC" stroke-width="2" stroke-miterlimit="10" d="M82.46,131.658
			c1.748-1.484,4.008-2.383,6.48-2.383h54.88c2.471,0,4.73,0.898,6.478,2.382"/>
		<path fill="none" stroke="#297BCC" stroke-width="2" stroke-miterlimit="10" d="M149.471,123.674H83.288"/>
		<path fill="none" stroke="#297BCC" stroke-width="2" stroke-miterlimit="10" d="M150.298,131.657
			c-1.747-1.483-4.007-2.382-6.478-2.382H88.94c-2.472,0-4.732,0.898-6.48,2.383"/>
	</g>
	<g>
		<path fill="none" stroke="#297BCC" stroke-width="2" stroke-miterlimit="10" d="M79.171,49.941c-2.838-2.838-2.838-7.44,0-10.278
			l26.293-26.294c2.838-2.838,7.439-2.838,10.277,0c2.839,2.838,2.839,7.44,0,10.279L89.449,49.941
			C86.611,52.78,82.01,52.78,79.171,49.941z"/>
		<polyline fill="none" stroke="#297BCC" stroke-width="2" stroke-miterlimit="10" points="80.255,50.931 62.201,68.986 
			60.128,66.914 78.182,48.858 		"/>
	</g>
	<g>
		<g>
			<path fill="none" stroke="#297BCC" stroke-width="2" stroke-linecap="round" stroke-miterlimit="10" d="M182.036,27.389h-8.875
				c-1.631,0-3.048-0.873-3.766-2.153c-2.529,0.032-4.568,1.837-4.568,4.062c0,2.245,2.076,4.065,4.637,4.065h21.624
				c2.561,0,4.637-1.82,4.637-4.065c0-2.225-2.039-4.03-4.568-4.062"/>
			<path fill="none" stroke="#297BCC" stroke-width="2" stroke-linecap="round" stroke-miterlimit="10" d="M180.467,19.258h-7.306
				c-2.357,0-4.269,1.82-4.269,4.065c0,0.691,0.183,1.342,0.503,1.913c0.022,0,0.045-0.003,0.068-0.003"/>
			<path fill="none" stroke="#297BCC" stroke-width="2" stroke-linecap="round" stroke-miterlimit="10" d="M191.088,25.233
				c0.023,0,0.046,0.002,0.068,0.003c0.32-0.57,0.503-1.221,0.503-1.913c0-1.804-0.964-3.333-2.671-3.865"/>
		</g>
		<path fill="none" stroke="#297BCC" stroke-width="2" stroke-miterlimit="10" d="M184.97,84.724c-2.866,2.328-6.521,2.328-9.388,0
			c-10.185-8.27-13.464-51.359-13.464-51.359h36.315C198.434,33.364,195.154,76.454,184.97,84.724z"/>
		<circle fill="none" stroke="#297BCC" stroke-width="2" stroke-miterlimit="10" cx="184.73" cy="17.969" r="4.455"/>
		<path fill="none" stroke="#297BCC" stroke-width="2" stroke-miterlimit="10" d="M193.656,3.181c0,0-7.05,2.493-8.337,11.036"/>
		<path fill="none" stroke="#297BCC" stroke-width="2" stroke-miterlimit="10" d="M197.621,93.394v-1.289
			c0-3.692-7.766-5.34-17.346-5.34c-9.578,0-17.344,1.647-17.344,5.34v1.289H197.621z"/>
	</g>
	<g>
		<path fill="none" stroke="#297BCC" stroke-width="2" stroke-miterlimit="10" d="M171.468,161.359
			c0.741-0.043,1.501-0.064,2.274-0.064c8.156,0,14.768,2.472,14.768,5.521c0,3.049-6.611,5.52-14.768,5.52
			c-8.157,0-14.77-2.471-14.77-5.52c0-1.451,1.497-2.771,3.944-3.757"/>
		<path fill="none" stroke="#297BCC" stroke-width="2" stroke-miterlimit="10" d="M188.065,183.13c0,3.05-6.167,5.521-14.323,5.521
			c-8.157,0-14.325-2.471-14.325-5.521"/>
		
			<line fill="none" stroke="#297BCC" stroke-width="2" stroke-miterlimit="10" x1="158.973" y1="166.816" x2="159.417" y2="183.13"/>
		<line fill="none" stroke="#297BCC" stroke-width="2" stroke-miterlimit="10" x1="188.51" y1="166.816" x2="188.065" y2="183.13"/>
		
			<ellipse fill="none" stroke="#297BCC" stroke-width="2" stroke-miterlimit="10" cx="175.429" cy="166.812" rx="4.851" ry="1.986"/>
		<polygon fill="none" stroke="#297BCC" stroke-width="2" stroke-miterlimit="10" points="171.207,156.223 166.416,156.223 
			166.86,166.816 170.764,166.816 		"/>
		<polygon fill="none" stroke="#297BCC" stroke-width="2" stroke-miterlimit="10" points="166.482,158.221 162.58,158.221 
			163.258,162.928 163.914,167.48 166.927,167.48 166.529,161.865 		"/>
	</g>
	<polygon fill="none" stroke="#297BCC" stroke-width="2" stroke-miterlimit="10" points="49.904,106.377 34.602,154.287 
		19.3,106.377 	"/>
	<path fill="none" stroke="#297BCC" stroke-width="2" stroke-miterlimit="10" d="M49.758,98.25c0.262-1.137,0.4-2.322,0.4-3.538
		c0-8.689-7.044-15.733-15.732-15.733c-8.689,0-15.732,7.044-15.732,15.733c0,1.215,0.138,2.398,0.398,3.535"/>
	<path fill="none" stroke="#297BCC" stroke-width="2" stroke-miterlimit="10" d="M49.508,106.484H19.343
		c-2.38,0-4.309-1.93-4.309-4.311c0-2.38,1.929-4.309,4.309-4.309h30.165c2.38,0,4.309,1.929,4.309,4.309
		C53.817,104.555,51.888,106.484,49.508,106.484z"/>
	<g>
		<defs>
			<polygon id="SVGID_1_" points="49.728,106.377 34.424,154.287 19.123,106.377 			"/>
		</defs>
		<clipPath id="SVGID_2_">
			<use xlink:href="#SVGID_1_"  overflow="visible"/>
		</clipPath>
		<g clip-path="url(#SVGID_2_)">
			<g>
				
					<line fill="none" stroke="#297BCC" stroke-width="2" stroke-miterlimit="10" x1="-22.853" y1="128.942" x2="36.06" y2="187.854"/>
				
					<line fill="none" stroke="#297BCC" stroke-width="2" stroke-miterlimit="10" x1="-18.919" y1="125.008" x2="40.145" y2="183.77"/>
				
					<line fill="none" stroke="#297BCC" stroke-width="2" stroke-miterlimit="10" x1="-14.91" y1="120.998" x2="44.154" y2="179.76"/>
				
					<line fill="none" stroke="#297BCC" stroke-width="2" stroke-miterlimit="10" x1="-10.9" y1="116.989" x2="48.164" y2="175.751"/>
				<line fill="none" stroke="#297BCC" stroke-width="2" stroke-miterlimit="10" x1="-6.891" y1="112.98" x2="52.173" y2="171.74"/>
				
					<line fill="none" stroke="#297BCC" stroke-width="2" stroke-miterlimit="10" x1="-2.881" y1="108.971" x2="56.183" y2="167.731"/>
				
					<line fill="none" stroke="#297BCC" stroke-width="2" stroke-miterlimit="10" x1="1.128" y1="104.961" x2="60.192" y2="163.722"/>
				
					<line fill="none" stroke="#297BCC" stroke-width="2" stroke-miterlimit="10" x1="5.138" y1="100.951" x2="64.202" y2="159.713"/>
				<line fill="none" stroke="#297BCC" stroke-width="2" stroke-miterlimit="10" x1="9.147" y1="96.942" x2="68.21" y2="155.703"/>
				<line fill="none" stroke="#297BCC" stroke-width="2" stroke-miterlimit="10" x1="13.157" y1="92.931" x2="72.22" y2="151.694"/>
				<line fill="none" stroke="#297BCC" stroke-width="2" stroke-miterlimit="10" x1="17.166" y1="88.922" x2="76.23" y2="147.684"/>
				
					<line fill="none" stroke="#297BCC" stroke-width="2" stroke-miterlimit="10" x1="21.175" y1="84.913" x2="80.239" y2="143.674"/>
				
					<line fill="none" stroke="#297BCC" stroke-width="2" stroke-miterlimit="10" x1="25.185" y1="80.904" x2="84.249" y2="139.666"/>
				
					<line fill="none" stroke="#297BCC" stroke-width="2" stroke-miterlimit="10" x1="29.194" y1="76.894" x2="88.258" y2="135.656"/>
				
					<line fill="none" stroke="#297BCC" stroke-width="2" stroke-miterlimit="10" x1="33.204" y1="72.884" x2="92.268" y2="131.646"/>
			</g>
			<g>
				
					<line fill="none" stroke="#297BCC" stroke-width="2" stroke-miterlimit="10" x1="36.06" y1="72.733" x2="-22.853" y2="131.646"/>
				
					<line fill="none" stroke="#297BCC" stroke-width="2" stroke-miterlimit="10" x1="39.994" y1="76.668" x2="-18.768" y2="135.731"/>
				
					<line fill="none" stroke="#297BCC" stroke-width="2" stroke-miterlimit="10" x1="44.003" y1="80.677" x2="-14.759" y2="139.741"/>
				
					<line fill="none" stroke="#297BCC" stroke-width="2" stroke-miterlimit="10" x1="48.012" y1="84.687" x2="-10.749" y2="143.75"/>
				<line fill="none" stroke="#297BCC" stroke-width="2" stroke-miterlimit="10" x1="52.022" y1="88.696" x2="-6.74" y2="147.76"/>
				<line fill="none" stroke="#297BCC" stroke-width="2" stroke-miterlimit="10" x1="56.031" y1="92.705" x2="-2.73" y2="151.77"/>
				<line fill="none" stroke="#297BCC" stroke-width="2" stroke-miterlimit="10" x1="60.041" y1="96.716" x2="1.279" y2="155.779"/>
				<line fill="none" stroke="#297BCC" stroke-width="2" stroke-miterlimit="10" x1="64.05" y1="100.724" x2="5.289" y2="159.788"/>
				<line fill="none" stroke="#297BCC" stroke-width="2" stroke-miterlimit="10" x1="68.06" y1="104.734" x2="9.298" y2="163.798"/>
				
					<line fill="none" stroke="#297BCC" stroke-width="2" stroke-miterlimit="10" x1="72.069" y1="108.744" x2="13.308" y2="167.807"/>
				
					<line fill="none" stroke="#297BCC" stroke-width="2" stroke-miterlimit="10" x1="76.078" y1="112.754" x2="17.317" y2="171.816"/>
				
					<line fill="none" stroke="#297BCC" stroke-width="2" stroke-miterlimit="10" x1="80.088" y1="116.763" x2="21.327" y2="175.826"/>
				
					<line fill="none" stroke="#297BCC" stroke-width="2" stroke-miterlimit="10" x1="84.097" y1="120.771" x2="25.336" y2="179.836"/>
				
					<line fill="none" stroke="#297BCC" stroke-width="2" stroke-miterlimit="10" x1="88.106" y1="124.781" x2="29.345" y2="183.846"/>
				
					<line fill="none" stroke="#297BCC" stroke-width="2" stroke-miterlimit="10" x1="92.116" y1="128.791" x2="33.355" y2="187.854"/>
			</g>
		</g>
	</g>
	<g>
		<path fill="none" stroke="#297BCC" stroke-width="2" stroke-miterlimit="10" d="M36.911,192.473c0-2.721,0.383-5.361,1.102-7.873
			c0.152-0.532,0.319-1.059,0.502-1.58c0.284-0.811,0.604-1.607,0.957-2.387c0.435-0.961,0.921-1.896,1.455-2.805
			c0.43-0.73,0.891-1.441,1.38-2.135c5.912-8.354,16.112-13.87,27.703-13.87c18.279,0,33.097,13.722,33.097,30.649H36.911z"/>
		<polyline fill="none" stroke="#297BCC" stroke-width="2" stroke-miterlimit="10" points="37.424,187.069 31.174,186.907 
			32.35,183.257 38.013,184.6 		"/>
		<polyline fill="none" stroke="#297BCC" stroke-width="2" stroke-miterlimit="10" points="38.515,183.02 34.513,181.563 
			36.409,178.206 39.47,180.631 		"/>
		<polyline fill="none" stroke="#297BCC" stroke-width="2" stroke-miterlimit="10" points="40.926,177.828 36.966,176.16 
			39.452,172.803 42.305,175.693 		"/>
		<polyline fill="none" stroke="#297BCC" stroke-width="2" stroke-miterlimit="10" points="97.71,175.691 103.455,173.535 
			105.061,177.219 99.2,178.014 		"/>
		<polyline fill="none" stroke="#297BCC" stroke-width="2" stroke-miterlimit="10" points="93.909,171.27 99.548,167.297 
			100.854,171.244 95.704,173.152 		"/>
		<polyline fill="none" stroke="#297BCC" stroke-width="2" stroke-miterlimit="10" points="100.216,179.928 107.597,179.015 
			107.505,182.732 101.317,182.508 		"/>
		<polyline fill="none" stroke="#297BCC" stroke-width="2" stroke-miterlimit="10" points="102.297,185.712 108.824,186.096 
			108.572,189.201 102.789,188.209 		"/>
	</g>
	<rect x="-0.993" y="0" fill="none" width="199.999" height="200"/>
</g>
<g>
</g>
<g>
</g>
<g>
</g>
<g>
</g>
<g>
</g>
<g>
</g>
</svg>
