<?xml version="1.0" encoding="utf-8"?>
<!-- Generator: Adobe Illustrator 16.0.4, SVG Export Plug-In . SVG Version: 6.00 Build 0)  -->
<!DOCTYPE svg PUBLIC "-//W3C//DTD SVG 1.1//EN" "http://www.w3.org/Graphics/SVG/1.1/DTD/svg11.dtd">
<svg version="1.1" id="Layer_1" xmlns="http://www.w3.org/2000/svg" xmlns:xlink="http://www.w3.org/1999/xlink" x="0px" y="0px"
	 width="18px" height="18px" viewBox="0 0 18 18" enable-background="new 0 0 18 18" xml:space="preserve">
<rect x="5" y="12" fill="none" width="1" height="1"/>
<polygon fill="none" points="8,15 8,16 16,16 16,8 15,8 15,15 "/>
<polygon fill="none" points="6,6 10,6 10,5 5,5 5,10 6,10 "/>
<polygon fill="none" points="13,8 12,8 12,12 8,12 8,13 13,13 "/>
<polygon fill="none" points="10,3 10,2 2,2 2,10 3,10 3,3 "/>
<rect x="12" y="5" fill="none" width="1" height="1"/>
<rect x="8" y="8" fill="none" width="2" height="2"/>
<polygon fill="#FFFFFF" points="2,10 2,2 10,2 10,3 12,3 12,0 0,0 0,12 3,12 3,10 "/>
<polygon fill="#FFFFFF" points="5,13 5,12 3,12 3,15 6,15 6,13 "/>
<polygon fill="#FFFFFF" points="10,5 10,3 3,3 3,10 5,10 5,5 "/>
<polygon fill="#FFFFFF" points="13,5 13,6 15,6 15,3 12,3 12,5 "/>
<rect x="3" y="10" fill="#FFFFFF" width="2" height="2"/>
<rect x="10" y="3" fill="#FFFFFF" width="2" height="2"/>
<rect x="12" y="6" fill="#FFFFFF" width="1" height="2"/>
<rect x="6" y="12" fill="#FFFFFF" width="2" height="1"/>
<polygon fill="#FFFFFF" points="8,8 10,8 10,6 6,6 6,10 8,10 "/>
<polygon fill="#FFFFFF" points="15,6 15,8 16,8 16,16 8,16 8,15 6,15 6,18 18,18 18,6 "/>
<rect x="6" y="10" fill="#FFFFFF" width="2" height="2"/>
<rect x="10" y="6" fill="#FFFFFF" width="2" height="2"/>
<rect x="13" y="6" fill="#FFFFFF" width="2" height="2"/>
<rect x="6" y="13" fill="#FFFFFF" width="2" height="2"/>
<g>
</g>
<g>
</g>
<g>
</g>
<g>
</g>
<g>
</g>
<g>
</g>
</svg>
